<svg width="23" height="20" viewBox="0 0 23 20" fill="none" xmlns="http://www.w3.org/2000/svg">
<path d="M12.3241 8.43558e-08C13.8917 -5.16085e-06 15.1208 -9.31535e-06 16.1086 0.0806994C17.1145 0.162883 17.9455 0.333004 18.6977 0.716243C19.9341 1.34627 20.9394 2.35157 21.5695 3.58806C22.029 4.49002 22.1878 5.52267 22.2474 6.85714H0.038331C0.0979594 5.52267 0.256674 4.49002 0.716243 3.58806C1.34627 2.35157 2.35157 1.34627 3.58806 0.716243C4.34021 0.333004 5.17119 0.162883 6.17707 0.0806994C7.1649 -9.31535e-06 8.39397 -5.16085e-06 9.96165 8.43558e-08H12.3241Z" fill="url(#paint0_linear_22_541)"/>
<path fill-rule="evenodd" clip-rule="evenodd" d="M0.00259837 8.57143C8.43512e-08 9.01036 8.43559e-08 9.48339 8.43559e-08 9.99339V10.0384C-5.16085e-06 11.606 -9.31535e-06 12.8351 0.0806994 13.8229C0.162883 14.8288 0.333004 15.6598 0.716243 16.4119C1.34627 17.6484 2.35157 18.6537 3.58806 19.2838C4.34021 19.667 5.17119 19.8371 6.17707 19.9193C7.16485 20 8.39384 20 9.9614 20H12.3241C13.8917 20 15.1209 20 16.1086 19.9193C17.1145 19.8371 17.9455 19.667 18.6977 19.2838C19.9341 18.6537 20.9394 17.6484 21.5695 16.4119C21.9527 15.6598 22.1228 14.8288 22.205 13.8229C22.2857 12.8352 22.2857 11.6062 22.2857 10.0386V9.99337C22.2857 9.48338 22.2857 9.01036 22.2831 8.57143H0.00259837ZM11.4286 15.7143C11.4286 15.2409 11.8123 14.8571 12.2857 14.8571H16.8571C17.3305 14.8571 17.7143 15.2409 17.7143 15.7143C17.7143 16.1877 17.3305 16.5714 16.8571 16.5714H12.2857C11.8123 16.5714 11.4286 16.1877 11.4286 15.7143Z" fill="url(#paint1_linear_22_541)"/>
<defs>
<linearGradient id="paint0_linear_22_541" x1="11.1429" y1="0" x2="11.1429" y2="20" gradientUnits="userSpaceOnUse">
<stop stop-color="#FFEDB3"/>
<stop offset="0.177885" stop-color="#FFDF79"/>
<stop offset="0.899038" stop-color="#BE6700"/>
</linearGradient>
<linearGradient id="paint1_linear_22_541" x1="11.1429" y1="0" x2="11.1429" y2="20" gradientUnits="userSpaceOnUse">
<stop stop-color="#FFEDB3"/>
<stop offset="0.177885" stop-color="#FFDF79"/>
<stop offset="0.899038" stop-color="#BE6700"/>
</linearGradient>
</defs>
</svg>
