<svg width="48" height="51" viewBox="0 0 48 51" fill="none" xmlns="http://www.w3.org/2000/svg">
<path d="M23.5 9.6684C32.3303 9.6684 39.5 16.8381 39.5 25.6684C39.5 34.4987 32.3303 41.6684 23.5 41.6684C14.6697 41.6684 7.5 34.4987 7.5 25.6684C7.5 16.8381 14.6697 9.6684 23.5 9.6684ZM23.5 17.6459C22.611 17.6459 21.8897 18.3673 21.8896 19.2563V26.02L17.5654 28.517C16.8427 28.9337 16.5654 29.8261 16.8994 30.5707L16.9746 30.7182C17.4193 31.4873 18.4046 31.751 19.1748 31.3071L24.2988 28.3491L24.2979 28.3481C24.3014 28.3461 24.305 28.3455 24.3057 28.3452C24.3051 28.3455 24.304 28.3464 24.3027 28.3471L24.3047 28.3461L24.3203 28.3373C24.5672 28.1913 24.7609 27.9891 24.8955 27.7563V27.7543C24.9944 27.582 25.065 27.388 25.0947 27.1801L25.1104 26.9672V19.2563C25.1103 18.3673 24.389 17.6459 23.5 17.6459Z" fill="url(#paint0_linear_22_592)" stroke="url(#paint1_linear_22_592)"/>
<g filter="url(#filter0_f_22_592)">
<path d="M24.5627 19.6972L14.9975 14.5185L7.86552 22.7311L13.0442 13.1659L4.83157 6.03396L14.3968 11.2126L21.5287 3L16.3501 12.5652L24.5627 19.6972Z" fill="url(#paint2_radial_22_592)"/>
</g>
<defs>
<filter id="filter0_f_22_592" x="1.83157" y="0" width="25.7311" height="25.7311" filterUnits="userSpaceOnUse" color-interpolation-filters="sRGB">
<feFlood flood-opacity="0" result="BackgroundImageFix"/>
<feBlend mode="normal" in="SourceGraphic" in2="BackgroundImageFix" result="shape"/>
<feGaussianBlur stdDeviation="1.5" result="effect1_foregroundBlur_22_592"/>
</filter>
<linearGradient id="paint0_linear_22_592" x1="23.5" y1="9.1684" x2="23.5" y2="42.1684" gradientUnits="userSpaceOnUse">
<stop stop-color="#F3DFA2"/>
<stop offset="1" stop-color="#C57F34"/>
</linearGradient>
<linearGradient id="paint1_linear_22_592" x1="23.5" y1="9.1684" x2="23.5" y2="42.1684" gradientUnits="userSpaceOnUse">
<stop offset="0.0636107" stop-color="#FFEDB3"/>
<stop offset="0.298077" stop-color="#FED466"/>
<stop offset="0.47" stop-color="#FEC639"/>
<stop offset="0.55" stop-color="#F9A505"/>
<stop offset="0.899038" stop-color="#BE6700"/>
</linearGradient>
<radialGradient id="paint2_radial_22_592" cx="0" cy="0" r="1" gradientUnits="userSpaceOnUse" gradientTransform="translate(14.6971 12.8656) rotate(-145.299) scale(12)">
<stop stop-color="white"/>
<stop offset="0.557292" stop-color="#FFEA70"/>
<stop offset="0.973958" stop-color="#FD7906"/>
</radialGradient>
</defs>
</svg>
