<svg width="120" height="133" viewBox="0 0 120 133" fill="none" xmlns="http://www.w3.org/2000/svg">
<path d="M47.3457 64.0948V105.871L48.749 105.252L59.6201 100.455L70.4922 105.252L71.8965 105.871V64.0948H88.7266V115.046H30.5146V64.0948H47.3457ZM64.7695 50.172V94.9366L60.0244 92.8438L59.6211 92.6661L59.2168 92.8438L54.4727 94.9366V50.172H64.7695ZM94.4922 50.172V56.9679H71.8965V50.172H94.4922ZM47.3457 50.172V56.9679H24.75V50.172H47.3457ZM75.0908 29.546H81.2217C83.0469 29.5461 84.5332 31.0329 84.5332 32.8585C84.5331 34.3738 83.5108 35.6916 82.0498 36.0665L80.0615 36.5763L79.2861 36.7755L79.3105 37.5753L79.375 39.6866V39.6895C79.3753 39.6989 79.3757 39.7076 79.376 39.714C79.3763 39.7211 79.3768 39.7255 79.377 39.7296C79.377 39.7312 79.3769 39.7325 79.377 39.7335C79.377 41.5588 77.8898 43.046 76.0645 43.046H71.8965V42.381C71.8964 38.4174 70.0071 34.8913 67.0889 32.6476C69.2055 30.7205 72.0132 29.546 75.0908 29.546ZM38.0205 29.546H44.1514C47.2287 29.5461 50.0358 30.7208 52.1523 32.6476C49.2343 34.8913 47.3457 38.4177 47.3457 42.381V43.045H43.1768C41.3537 43.0449 39.8688 41.5623 39.8652 39.7403C39.8653 39.7394 39.865 39.7364 39.8652 39.7306C39.8654 39.7265 39.866 39.7221 39.8662 39.7159C39.8664 39.71 39.8659 39.7017 39.8662 39.6935L39.8672 39.6895L39.9307 37.5753L39.9551 36.7755L39.1797 36.5763L37.1924 36.0665C35.731 35.6917 34.708 34.3731 34.708 32.8575C34.7082 31.0324 36.1952 29.546 38.0205 29.546ZM59.6211 37.2325C62.4589 37.2327 64.7695 39.5433 64.7695 42.381V43.045H54.4727V42.381C54.4727 39.543 56.7833 37.2325 59.6211 37.2325Z" fill="url(#paint0_linear_13_815)" stroke="url(#paint1_linear_13_815)" stroke-width="2"/>
<g filter="url(#filter0_f_13_815)">
<path d="M61.4067 49.2429L37.4937 36.2962L19.6638 56.8278L32.6105 32.9148L12.0789 15.0849L35.9919 28.0316L53.8218 7.5L40.8752 31.413L61.4067 49.2429Z" fill="url(#paint2_radial_13_815)"/>
</g>
<defs>
<filter id="filter0_f_13_815" x="4.57892" y="0" width="64.3278" height="64.3278" filterUnits="userSpaceOnUse" color-interpolation-filters="sRGB">
<feFlood flood-opacity="0" result="BackgroundImageFix"/>
<feBlend mode="normal" in="SourceGraphic" in2="BackgroundImageFix" result="shape"/>
<feGaussianBlur stdDeviation="3.75" result="effect1_foregroundBlur_13_815"/>
</filter>
<linearGradient id="paint0_linear_13_815" x1="59.621" y1="28.546" x2="59.621" y2="116.046" gradientUnits="userSpaceOnUse">
<stop stop-color="#F3DFA2"/>
<stop offset="1" stop-color="#C57F34"/>
</linearGradient>
<linearGradient id="paint1_linear_13_815" x1="59.621" y1="28.546" x2="59.621" y2="116.046" gradientUnits="userSpaceOnUse">
<stop offset="0.0636107" stop-color="#FFEDB3"/>
<stop offset="0.298077" stop-color="#FED466"/>
<stop offset="0.47" stop-color="#FEC639"/>
<stop offset="0.55" stop-color="#F9A505"/>
<stop offset="0.899038" stop-color="#BE6700"/>
</linearGradient>
<radialGradient id="paint2_radial_13_815" cx="0" cy="0" r="1" gradientUnits="userSpaceOnUse" gradientTransform="translate(36.7428 32.1639) rotate(-145.299) scale(30)">
<stop stop-color="white"/>
<stop offset="0.557292" stop-color="#FFEA70"/>
<stop offset="0.973958" stop-color="#FD7906"/>
</radialGradient>
</defs>
</svg>
