<svg width="40" height="41" viewBox="0 0 40 41" fill="none" xmlns="http://www.w3.org/2000/svg">
<g filter="url(#filter0_di_2003_141)">
<path d="M19 38L9.5 19L19 7.5517e-07C29.4934 1.58931e-06 38 8.50663 38 19C38 29.4934 29.4934 38 19 38Z" fill="#D59C41"/>
<path d="M1.51034e-06 19C2.34448e-06 8.50663 8.50663 6.76206e-07 19 1.51034e-06L19 38C8.50663 38 6.76206e-07 29.4934 1.51034e-06 19Z" fill="#EAB239"/>
<path d="M19 32.7109L12.1445 18.9999L19 5.289C26.5723 5.289 32.7109 11.4276 32.7109 18.9999C32.7109 26.5723 26.5723 32.7109 19 32.7109Z" fill="#EAB239"/>
<path d="M5.28931 18.9999C5.28931 11.4276 11.4279 5.289 19.0002 5.289L19.0002 32.7109C11.4279 32.7109 5.28931 26.5723 5.28931 18.9999Z" fill="#FFDF79"/>
<path fill-rule="evenodd" clip-rule="evenodd" d="M18.9009 17.5533L18.9999 17.5533L18.9999 20.2363L18.9009 20.2363L18.9009 17.5533ZM18.9999 26.4369C17.955 26.4288 17.0054 26.2582 16.1511 25.9251C15.2753 25.5763 14.522 25.0679 13.8911 24.3999C13.2677 23.7246 12.7853 22.9007 12.4438 21.9285C12.1099 20.9488 11.9429 19.8281 11.9429 18.5663L11.9429 17.6646C11.9429 16.4029 12.1136 15.2822 12.455 14.3025C12.7964 13.3228 13.2751 12.499 13.8911 11.831C14.5146 11.1556 15.2456 10.6435 16.0843 10.2947C16.9304 9.94584 17.8581 9.77142 18.8675 9.77142C18.9119 9.77142 18.956 9.77163 18.9999 9.77205L18.9999 12.7773C18.5328 12.7775 18.1064 12.8776 17.7208 13.0779C17.3423 13.2783 17.0194 13.5826 16.7522 13.9908C16.4851 14.3915 16.2772 14.8962 16.1288 15.5048C15.9878 16.1134 15.9173 16.8259 15.9173 17.6423L15.9173 18.5663C15.9173 19.3753 15.9841 20.0841 16.1177 20.6927C16.2587 21.3013 16.4665 21.8097 16.7411 22.2179C17.0231 22.6187 17.3794 22.923 17.8099 23.1308C18.1574 23.2899 18.5541 23.3858 18.9999 23.4186L18.9999 26.4369Z" fill="#EAB239"/>
<path d="M22.5079 10.4839C21.6006 10.0231 20.4313 9.78577 18.9999 9.77205L18.9999 12.7773L19.0011 12.7773C19.6023 12.7773 20.0921 12.8775 20.4706 13.0779C20.8491 13.2708 21.1386 13.5566 21.339 13.9351C21.5468 14.3062 21.6878 14.7589 21.762 15.2933L25.5138 15.2933C25.4099 14.2097 25.1167 13.256 24.6343 12.4322C24.1519 11.6009 23.4431 10.9515 22.5079 10.4839Z" fill="#D59C41"/>
<path d="M25.5249 24.2107L25.5249 17.5533L18.9999 17.5533L18.9999 20.2363L21.6173 20.2363L21.6173 22.7523C21.5134 22.8488 21.3612 22.9527 21.1608 23.064C20.9679 23.1679 20.723 23.257 20.4261 23.3312C20.1292 23.398 19.773 23.4314 19.3573 23.4314C19.2349 23.4314 19.1157 23.4271 18.9999 23.4186L18.9999 26.4369C19.0262 26.4371 19.0526 26.4372 19.079 26.4372C20.2442 26.4372 21.2573 26.3148 22.1183 26.0699C22.9792 25.8249 23.6917 25.5318 24.2558 25.1904C24.8273 24.8415 25.2503 24.515 25.5249 24.2107Z" fill="#D59C41"/>
</g>
<defs>
<filter id="filter0_di_2003_141" x="3.02068e-06" y="0" width="39.0857" height="40.1714" filterUnits="userSpaceOnUse" color-interpolation-filters="sRGB">
<feFlood flood-opacity="0" result="BackgroundImageFix"/>
<feColorMatrix in="SourceAlpha" type="matrix" values="0 0 0 0 0 0 0 0 0 0 0 0 0 0 0 0 0 0 127 0" result="hardAlpha"/>
<feOffset dx="1.08571" dy="2.17143"/>
<feComposite in2="hardAlpha" operator="out"/>
<feColorMatrix type="matrix" values="0 0 0 0 0.513726 0 0 0 0 0.113725 0 0 0 0 0.0627451 0 0 0 0.5 0"/>
<feBlend mode="normal" in2="BackgroundImageFix" result="effect1_dropShadow_2003_141"/>
<feBlend mode="normal" in="SourceGraphic" in2="effect1_dropShadow_2003_141" result="shape"/>
<feColorMatrix in="SourceAlpha" type="matrix" values="0 0 0 0 0 0 0 0 0 0 0 0 0 0 0 0 0 0 127 0" result="hardAlpha"/>
<feOffset dy="2.17143"/>
<feGaussianBlur stdDeviation="2.17143"/>
<feComposite in2="hardAlpha" operator="arithmetic" k2="-1" k3="1"/>
<feColorMatrix type="matrix" values="0 0 0 0 1 0 0 0 0 0.915839 0 0 0 0 0.438927 0 0 0 1 0"/>
<feBlend mode="normal" in2="shape" result="effect2_innerShadow_2003_141"/>
</filter>
</defs>
</svg>
