<svg width="50" height="57" viewBox="0 0 50 57" fill="none" xmlns="http://www.w3.org/2000/svg">
<path d="M48.8909 49.4352C48.8909 51.3092 47.4861 52.8267 45.054 53.9049C42.6423 54.9741 39.3856 55.524 36.0959 55.524C32.8062 55.524 29.5487 54.9741 27.137 53.9049C24.7051 52.8267 23.301 51.3091 23.301 49.4352V48.3121C27.1228 50.6922 31.5805 51.8698 36.095 51.6783C40.6102 51.8701 45.0685 50.6918 48.8909 48.3112V49.4352ZM9.93286 46.3063C12.616 47.9735 15.659 48.9784 18.8127 49.233V49.4313C18.8047 50.7265 19.1152 51.9975 19.7073 53.1364C17.1907 52.8753 14.8581 52.2807 13.0999 51.3668C11.0786 50.3162 9.93305 48.9169 9.93286 47.2076V46.3063ZM36.0959 35.0133C39.7135 35.0133 42.9641 35.7474 45.2893 36.9059C47.6497 38.082 48.8907 39.5995 48.8909 41.1022C48.8909 42.605 47.6498 44.1233 45.2893 45.2994C42.9641 46.4579 39.7134 47.191 36.0959 47.191C32.4782 47.191 29.2269 46.4581 26.9016 45.2994C24.5411 44.1233 23.301 42.605 23.301 41.1022C23.3012 39.5995 24.5413 38.082 26.9016 36.9059C29.2269 35.7472 32.4782 35.0133 36.0959 35.0133ZM9.93286 37.9781C12.6133 39.6545 15.6607 40.6585 18.8176 40.9C18.8142 40.9673 18.8128 41.0348 18.8127 41.1022V44.7057C16.4132 44.369 14.2391 43.7238 12.6409 42.7838C10.9047 41.7627 9.93293 40.4546 9.93286 38.8746V37.9781ZM9.93286 30.0651C13.7822 32.3756 18.2432 33.4829 22.7415 33.2301C23.2562 33.2317 23.7706 33.2206 24.2844 33.1979C22.8113 34.0618 21.4942 35.1839 20.3997 36.5201C17.5941 36.3114 14.9731 35.6916 13.052 34.6823C11.0605 33.6359 9.93286 32.2433 9.93286 30.5416V30.0651ZM35.5227 30.5309C35.2908 30.5349 35.059 30.5411 34.8274 30.5504C35.0626 30.4147 35.2946 30.2734 35.5227 30.1256V30.5309ZM22.7278 16.566C26.0175 16.5661 29.2741 17.116 31.6858 18.1852C34.1179 19.2634 35.5227 20.7809 35.5227 22.6549C35.5225 24.5521 34.1162 26.0686 31.6868 27.1403C29.2756 28.2039 26.0189 28.7438 22.7278 28.7438C19.4367 28.7438 16.18 28.2038 13.7688 27.1403C11.3394 26.0686 9.93304 24.5521 9.93286 22.6549C9.93286 20.7809 11.3377 19.2634 13.7698 18.1852C16.1815 17.116 19.4382 16.566 22.7278 16.566Z" fill="url(#paint0_linear_22_741)" stroke="url(#paint1_linear_22_741)" stroke-width="1.14583"/>
<g filter="url(#filter0_f_22_741)">
<path d="M26.0461 25.7932L15.0859 19.8593L6.91392 29.2696L12.8478 18.3094L3.43751 10.1374L14.3977 16.0713L22.5697 6.66101L16.6358 17.6212L26.0461 25.7932Z" fill="url(#paint2_radial_22_741)"/>
</g>
<defs>
<filter id="filter0_f_22_741" x="2.38419e-07" y="3.22351" width="29.4836" height="29.4835" filterUnits="userSpaceOnUse" color-interpolation-filters="sRGB">
<feFlood flood-opacity="0" result="BackgroundImageFix"/>
<feBlend mode="normal" in="SourceGraphic" in2="BackgroundImageFix" result="shape"/>
<feGaussianBlur stdDeviation="1.71875" result="effect1_foregroundBlur_22_741"/>
</filter>
<linearGradient id="paint0_linear_22_741" x1="29.4117" y1="15.9928" x2="29.4117" y2="56.097" gradientUnits="userSpaceOnUse">
<stop stop-color="#F3DFA2"/>
<stop offset="1" stop-color="#C57F34"/>
</linearGradient>
<linearGradient id="paint1_linear_22_741" x1="29.4117" y1="15.9928" x2="29.4117" y2="56.097" gradientUnits="userSpaceOnUse">
<stop offset="0.0636107" stop-color="#FFEDB3"/>
<stop offset="0.298077" stop-color="#FED466"/>
<stop offset="0.47" stop-color="#FEC639"/>
<stop offset="0.55" stop-color="#F9A505"/>
<stop offset="0.899038" stop-color="#BE6700"/>
</linearGradient>
<radialGradient id="paint2_radial_22_741" cx="0" cy="0" r="1" gradientUnits="userSpaceOnUse" gradientTransform="translate(14.7418 17.9653) rotate(-145.299) scale(13.75)">
<stop stop-color="white"/>
<stop offset="0.557292" stop-color="#FFEA70"/>
<stop offset="0.973958" stop-color="#FD7906"/>
</radialGradient>
</defs>
</svg>
