<svg width="21" height="30" viewBox="0 0 21 30" fill="none" xmlns="http://www.w3.org/2000/svg">
<path d="M19.126 0.733398C19.195 0.733434 19.2628 0.75324 19.3213 0.790039C19.3796 0.826804 19.4262 0.879276 19.4561 0.941406C19.4859 1.00361 19.498 1.07305 19.4902 1.1416C19.4824 1.21012 19.4552 1.27524 19.4121 1.3291L19.4111 1.33008L13.4707 8.75684C13.2553 9.02661 13.1199 9.35227 13.0811 9.69531C13.0423 10.0383 13.1013 10.3853 13.251 10.6963C13.4007 11.0074 13.6355 11.2704 13.9277 11.4541C14.2199 11.6376 14.5583 11.7353 14.9033 11.7354H19.8643C19.9368 11.7353 20.008 11.7566 20.0684 11.7969C20.1285 11.8371 20.1754 11.8941 20.2031 11.9609C20.2309 12.028 20.2379 12.1027 20.2236 12.1738C20.2094 12.2448 20.1743 12.3102 20.123 12.3613V12.3623L3.66895 28.8115C3.60067 28.8798 3.54378 28.8942 3.50293 28.8965C3.45307 28.8992 3.39063 28.884 3.33105 28.8438C3.27135 28.8033 3.23379 28.7505 3.21777 28.7031C3.20471 28.6644 3.19732 28.6063 3.23535 28.5176L7.13379 19.4209L7.13477 19.4199C7.25362 19.1414 7.30138 18.8377 7.27441 18.5361C7.24736 18.2343 7.14612 17.9435 6.97949 17.6904C6.81281 17.4374 6.5859 17.229 6.31934 17.085C6.05274 16.941 5.75417 16.865 5.45117 16.8643H1.09961C1.03907 16.8644 0.979136 16.8499 0.925781 16.8213C0.872398 16.7926 0.827299 16.7508 0.793945 16.7002C0.7606 16.6496 0.739673 16.5916 0.734375 16.5312C0.729117 16.4708 0.739524 16.4092 0.763672 16.3535L0.762695 16.3525L7.49609 0.954102V0.953125C7.52464 0.887925 7.57131 0.831972 7.63086 0.792969C7.67549 0.763761 7.72597 0.745036 7.77832 0.737305L7.83203 0.733398H19.126Z" fill="url(#paint0_linear_22_557)" stroke="url(#paint1_linear_22_557)" stroke-width="1.46686"/>
<defs>
<linearGradient id="paint0_linear_22_557" x1="10.4823" y1="0" x2="10.4823" y2="33" gradientUnits="userSpaceOnUse">
<stop stop-color="#F3DFA2"/>
<stop offset="1" stop-color="#C57F34"/>
</linearGradient>
<linearGradient id="paint1_linear_22_557" x1="10.4823" y1="0" x2="10.4823" y2="33" gradientUnits="userSpaceOnUse">
<stop offset="0.0636107" stop-color="#FFEDB3"/>
<stop offset="0.298077" stop-color="#FED466"/>
<stop offset="0.47" stop-color="#FEC639"/>
<stop offset="0.55" stop-color="#F9A505"/>
<stop offset="0.899038" stop-color="#BE6700"/>
</linearGradient>
</defs>
</svg>
