<svg width="116" height="100" viewBox="0 0 116 100" fill="none" xmlns="http://www.w3.org/2000/svg">
<g filter="url(#filter0_f_32_702)">
<path d="M45.4623 39.3943L26.3319 29.037L12.068 45.4622L22.4253 26.3318L6.00005 12.0679L25.1305 22.4252L39.3944 6L29.037 25.1304L45.4623 39.3943Z" fill="url(#paint0_radial_32_702)"/>
</g>
<g filter="url(#filter1_di_32_702)">
<path d="M35.6591 94.3368H24.0253C23.3123 94.3367 22.6281 94.0538 22.1239 93.5497C21.6197 93.0455 21.3369 92.3613 21.3368 91.6483V66.1034H35.6591V94.3368ZM53.8358 66.1034C54.552 68.1326 55.8797 69.8907 57.6356 71.1346C59.3915 72.3784 61.4897 73.0471 63.6415 73.0497H70.8114C72.9633 73.0471 75.0623 72.3785 76.8182 71.1346C78.5741 69.8907 79.9009 68.1325 80.6171 66.1034H93.4159V94.3368H41.037V66.1034H53.8358ZM113.117 91.6483C113.117 92.3613 112.833 93.0455 112.329 93.5497C111.825 94.0538 111.141 94.3368 110.428 94.3368H98.7938V66.1034H113.117V91.6483ZM35.6591 48.3573C35.6591 49.0704 35.9429 49.7544 36.4471 50.2587C36.9514 50.7629 37.6354 51.0458 38.3485 51.0458H53.245V60.7264H21.3368V36.1678C21.3406 33.0312 22.5886 30.0244 24.8065 27.8065C27.0244 25.5886 30.0312 24.3406 33.1678 24.3368H35.6591V48.3573ZM101.286 24.3368C104.422 24.3407 107.43 25.5887 109.647 27.8065C111.865 30.0244 113.113 33.0314 113.117 36.1678V60.7264H81.2089V51.0458H96.1053C96.8184 51.0457 97.5025 50.7629 98.0067 50.2587C98.5109 49.7544 98.7938 49.0704 98.7938 48.3573V24.3368H101.286ZM46.8378 24.4569L46.7567 30.036H63.328C63.2403 30.1373 63.1517 30.2398 63.0614 30.3427C61.5781 31.9368 60.3185 33.6463 59.3485 35.4823C58.3728 37.3291 57.717 39.3268 57.3339 41.4266L57.2606 41.8485C57.0646 43.0279 56.9274 44.2891 56.8387 45.6239H55.9335C55.7736 45.6242 55.6141 45.6393 55.4569 45.6688H41.037V24.3368H46.8407C46.84 24.3768 46.8383 24.4168 46.8378 24.4569ZM93.4159 45.6688H78.9969C78.8399 45.6393 78.6802 45.6242 78.5204 45.6239H77.7577C77.7961 45.4458 77.8355 45.2791 77.8778 45.1239C78.0084 44.645 78.3172 43.9927 79.0389 43.1747L79.0507 43.162L79.0624 43.1483C80.4952 41.5033 81.8396 39.9176 83.0966 38.3934L83.0975 38.3944C84.6557 36.5116 85.9374 34.462 86.9266 32.2528L86.9257 32.2518C88.0551 29.7852 88.5743 27.1115 88.6141 24.3368H93.4159V45.6688Z" fill="url(#paint1_linear_32_702)"/>
</g>
<g filter="url(#filter2_di_32_702)">
<path d="M71.9071 48.8368H62.2196C62.2456 46.493 62.4019 44.4618 62.6884 42.743C62.9748 40.9982 63.4826 39.4358 64.2118 38.0555C64.941 36.6753 65.9305 35.3212 67.1805 33.993C68.118 32.9253 68.9514 31.9097 69.6805 30.9462C70.4097 29.9566 70.9956 28.954 71.4384 27.9384C71.8811 26.8967 72.1024 25.7509 72.1024 24.5009C72.1024 23.0165 71.9331 21.7925 71.5946 20.829C71.2821 19.8654 70.8134 19.1363 70.1884 18.6415C69.5634 18.1467 68.7691 17.8993 67.8055 17.8993C67.1285 17.8993 66.4514 18.1337 65.7743 18.6024C65.0972 19.0712 64.5243 19.7873 64.0555 20.7509C63.5868 21.7144 63.3524 22.9774 63.3524 24.5399H52.3368C52.3889 20.9201 53.092 17.9384 54.4462 15.5946C55.8003 13.2509 57.6363 11.5191 59.954 10.3993C62.2977 9.25346 64.9149 8.68054 67.8055 8.68054C71.0087 8.68054 73.743 9.2795 76.0087 10.4774C78.3003 11.6493 80.0581 13.3811 81.2821 15.6727C82.5061 17.9384 83.118 20.7118 83.118 23.993C83.118 26.2587 82.7144 28.2639 81.9071 30.0087C81.1259 31.7535 80.1102 33.3811 78.8602 34.8915C77.6363 36.3759 76.3212 37.9253 74.9149 39.5399C73.743 40.868 72.9618 42.2482 72.5712 43.6805C72.1805 45.1128 71.9592 46.8316 71.9071 48.8368ZM61.243 60.829C61.243 59.1363 61.7769 57.717 62.8446 56.5712C63.9384 55.3993 65.4097 54.8134 67.2587 54.8134C69.0816 54.8134 70.5269 55.3993 71.5946 56.5712C72.6623 57.717 73.1962 59.1363 73.1962 60.829C73.1962 62.4956 72.6623 63.9149 71.5946 65.0868C70.5269 66.2326 69.0816 66.8055 67.2587 66.8055C65.4097 66.8055 63.9384 66.2326 62.8446 65.0868C61.7769 63.9149 61.243 62.4956 61.243 60.829Z" fill="url(#paint2_linear_32_702)" shape-rendering="crispEdges"/>
<path d="M67.2587 54.5634C69.1388 54.5634 70.6541 55.1704 71.7762 56.4003H71.7772C72.8917 57.5963 73.4462 59.0786 73.4462 60.829C73.4462 62.5544 72.8911 64.0343 71.7792 65.2548L71.7772 65.2577C70.6544 66.4624 69.1383 67.0555 67.2587 67.0555C65.3539 67.0555 63.8128 66.4631 62.6639 65.2596L62.66 65.2548C61.5481 64.0343 60.993 62.5544 60.993 60.829C60.993 59.0786 61.5475 57.5963 62.662 56.4003C63.8104 55.17 65.3522 54.5634 67.2587 54.5634ZM67.8055 8.43054C71.0378 8.43054 73.8131 9.03486 76.1219 10.2548C78.459 11.4499 80.2541 13.2181 81.5018 15.5536C82.7502 17.8644 83.368 20.6814 83.368 23.993C83.368 26.2872 82.9587 28.3279 82.1346 30.1102C81.344 31.8759 80.3164 33.5225 79.0526 35.0497C77.8271 36.536 76.5109 38.0879 75.1034 39.704L75.1024 39.705C73.9511 41.0098 73.1912 42.3571 72.8124 43.746C72.4285 45.1535 72.2088 46.852 72.1571 48.8436L72.1503 49.0868H61.9667L61.9696 48.8339C61.9957 46.4815 62.1522 44.4368 62.4413 42.702C62.7316 40.9343 63.2478 39.3453 63.9911 37.9384C64.7312 36.5376 65.733 35.1677 66.993 33.828L67.6737 33.0399C68.3343 32.2628 68.9362 31.5154 69.4794 30.7977C70.1985 29.8217 70.7744 28.8353 71.2089 27.8387C71.6366 26.8316 71.8524 25.7201 71.8524 24.5009C71.8524 23.0331 71.6843 21.8398 71.3583 20.912L71.3563 20.9061C71.0549 19.9769 70.6101 19.2946 70.0331 18.8378C69.4609 18.3848 68.7249 18.1493 67.8055 18.1493C67.1896 18.1493 66.5612 18.3615 65.9169 18.8075C65.2842 19.2455 64.7356 19.924 64.2802 20.8602C63.8338 21.7777 63.6024 22.9993 63.6024 24.5399V24.7899H52.0829L52.0868 24.536C52.1393 20.8876 52.848 17.8606 54.2294 15.4696C55.5211 13.2339 57.2475 11.5399 59.4071 10.3954L59.8456 10.1737C62.2267 9.00992 64.8816 8.43054 67.8055 8.43054Z" stroke="url(#paint3_linear_32_702)" stroke-opacity="0.9" stroke-width="0.5" shape-rendering="crispEdges"/>
</g>
<defs>
<filter id="filter0_f_32_702" x="0" y="0" width="51.4623" height="51.4623" filterUnits="userSpaceOnUse" color-interpolation-filters="sRGB">
<feFlood flood-opacity="0" result="BackgroundImageFix"/>
<feBlend mode="normal" in="SourceGraphic" in2="BackgroundImageFix" result="shape"/>
<feGaussianBlur stdDeviation="3" result="effect1_foregroundBlur_32_702"/>
</filter>
<filter id="filter1_di_32_702" x="21.3368" y="24.3368" width="92.7803" height="72" filterUnits="userSpaceOnUse" color-interpolation-filters="sRGB">
<feFlood flood-opacity="0" result="BackgroundImageFix"/>
<feColorMatrix in="SourceAlpha" type="matrix" values="0 0 0 0 0 0 0 0 0 0 0 0 0 0 0 0 0 0 127 0" result="hardAlpha"/>
<feOffset dx="1" dy="2"/>
<feComposite in2="hardAlpha" operator="out"/>
<feColorMatrix type="matrix" values="0 0 0 0 0.513726 0 0 0 0 0.113725 0 0 0 0 0.0627451 0 0 0 0.5 0"/>
<feBlend mode="normal" in2="BackgroundImageFix" result="effect1_dropShadow_32_702"/>
<feBlend mode="normal" in="SourceGraphic" in2="effect1_dropShadow_32_702" result="shape"/>
<feColorMatrix in="SourceAlpha" type="matrix" values="0 0 0 0 0 0 0 0 0 0 0 0 0 0 0 0 0 0 127 0" result="hardAlpha"/>
<feOffset dy="2"/>
<feGaussianBlur stdDeviation="2"/>
<feComposite in2="hardAlpha" operator="arithmetic" k2="-1" k3="1"/>
<feColorMatrix type="matrix" values="0 0 0 0 1 0 0 0 0 0.915839 0 0 0 0 0.438927 0 0 0 1 0"/>
<feBlend mode="normal" in2="shape" result="effect2_innerShadow_32_702"/>
</filter>
<filter id="filter2_di_32_702" x="51.8296" y="8.18054" width="32.7885" height="61.125" filterUnits="userSpaceOnUse" color-interpolation-filters="sRGB">
<feFlood flood-opacity="0" result="BackgroundImageFix"/>
<feColorMatrix in="SourceAlpha" type="matrix" values="0 0 0 0 0 0 0 0 0 0 0 0 0 0 0 0 0 0 127 0" result="hardAlpha"/>
<feOffset dx="1" dy="2"/>
<feComposite in2="hardAlpha" operator="out"/>
<feColorMatrix type="matrix" values="0 0 0 0 0.513726 0 0 0 0 0.113725 0 0 0 0 0.0627451 0 0 0 0.5 0"/>
<feBlend mode="normal" in2="BackgroundImageFix" result="effect1_dropShadow_32_702"/>
<feBlend mode="normal" in="SourceGraphic" in2="effect1_dropShadow_32_702" result="shape"/>
<feColorMatrix in="SourceAlpha" type="matrix" values="0 0 0 0 0 0 0 0 0 0 0 0 0 0 0 0 0 0 127 0" result="hardAlpha"/>
<feOffset dy="2"/>
<feGaussianBlur stdDeviation="2"/>
<feComposite in2="hardAlpha" operator="arithmetic" k2="-1" k3="1"/>
<feColorMatrix type="matrix" values="0 0 0 0 1 0 0 0 0 0.915839 0 0 0 0 0.438927 0 0 0 1 0"/>
<feBlend mode="normal" in2="shape" result="effect2_innerShadow_32_702"/>
</filter>
<radialGradient id="paint0_radial_32_702" cx="0" cy="0" r="1" gradientUnits="userSpaceOnUse" gradientTransform="translate(25.7312 25.7311) rotate(-145.299) scale(24)">
<stop stop-color="white"/>
<stop offset="0.557292" stop-color="#FFEA70"/>
<stop offset="0.973958" stop-color="#FD7906"/>
</radialGradient>
<linearGradient id="paint1_linear_32_702" x1="67.2269" y1="24.3368" x2="67.2269" y2="94.3368" gradientUnits="userSpaceOnUse">
<stop offset="0.0636107" stop-color="#FFEDB3"/>
<stop offset="0.298077" stop-color="#FED466"/>
<stop offset="0.47" stop-color="#FEC639"/>
<stop offset="0.55" stop-color="#F9A505"/>
<stop offset="0.899038" stop-color="#BE6700"/>
</linearGradient>
<linearGradient id="paint2_linear_32_702" x1="67.7274" y1="8.68054" x2="67.7274" y2="66.8055" gradientUnits="userSpaceOnUse">
<stop offset="0.0636107" stop-color="#FFEDB3"/>
<stop offset="0.298077" stop-color="#FED466"/>
<stop offset="0.47" stop-color="#FEC639"/>
<stop offset="0.55" stop-color="#F9A505"/>
<stop offset="0.899038" stop-color="#BE6700"/>
</linearGradient>
<linearGradient id="paint3_linear_32_702" x1="67.7274" y1="8.68054" x2="67.7274" y2="66.8055" gradientUnits="userSpaceOnUse">
<stop stop-color="#FFEA70"/>
<stop offset="0.148563" stop-color="#EAB239"/>
<stop offset="1" stop-color="#D59C41"/>
</linearGradient>
</defs>
</svg>
