<svg width="48" height="51" viewBox="0 0 48 51" fill="none" xmlns="http://www.w3.org/2000/svg">
<g filter="url(#filter0_di_17_1483)">
<path d="M40.1652 23.7543C40.137 23.4857 39.9988 23.2408 39.7836 23.0777L37.1561 21.0874L38.1121 17.933C38.1904 17.6744 38.1582 17.3951 38.0232 17.1611C37.8882 16.9273 37.6623 16.7597 37.3993 16.6983L34.1893 15.9488L33.7795 12.6782C33.746 12.4102 33.603 12.1681 33.3845 12.0094C33.1661 11.8505 32.8915 11.7893 32.6263 11.8402L29.3891 12.4612L27.6842 9.64003C27.5446 9.40894 27.3154 9.24587 27.0513 9.18977C26.7871 9.1336 26.5115 9.18925 26.2899 9.34364L23.5852 11.2276L20.8805 9.3437C20.6588 9.18938 20.3831 9.13366 20.119 9.18983C19.8548 9.24594 19.6257 9.40894 19.4861 9.64016L17.7815 12.4613L14.5442 11.8404C14.279 11.7896 14.0045 11.8508 13.786 12.0096C13.5676 12.1683 13.4245 12.4104 13.391 12.6784L12.9813 15.949L9.77122 16.6985C9.50819 16.7599 9.28241 16.9275 9.14733 17.1613C9.01231 17.3953 8.98018 17.6746 9.05844 17.933L10.0143 21.0875L7.38696 23.0777C7.17167 23.2408 7.03355 23.4856 7.00536 23.7542C6.97712 24.0229 7.06127 24.2911 7.23801 24.4954L9.39417 26.9884L7.80334 29.8753C7.67299 30.1118 7.64642 30.3917 7.72987 30.6486C7.81338 30.9054 7.99938 31.1162 8.24388 31.231L11.2277 32.6314L10.9485 35.9158C10.9256 36.1849 11.0151 36.4515 11.1959 36.6522C11.3766 36.8529 11.6324 36.9698 11.9024 36.9753L15.198 37.0409L16.2788 40.1548C16.3673 40.41 16.5575 40.6172 16.8042 40.727C17.0511 40.8369 17.3322 40.8396 17.5811 40.7347L20.6187 39.4544L22.8726 41.8595C23.0573 42.0566 23.3153 42.1684 23.5853 42.1684C23.8554 42.1684 24.1134 42.0566 24.2981 41.8595L26.552 39.4544L29.5894 40.7347C29.8382 40.8395 30.1194 40.8367 30.3661 40.727C30.6128 40.6172 30.8031 40.4101 30.8916 40.1549L31.9725 37.0409L35.2681 36.9753C35.538 36.9699 35.7938 36.8529 35.9745 36.6522C36.1552 36.4515 36.2448 36.185 36.2219 35.9158L35.9428 32.6314L38.9267 31.231C39.1713 31.1162 39.3573 30.9054 39.4408 30.6485C39.5242 30.3918 39.4976 30.1118 39.3672 29.8752L37.7763 26.9884L39.9326 24.4953C40.1092 24.2912 40.1934 24.0229 40.1652 23.7543ZM23.5852 35.0156C18.4311 35.0156 14.238 30.8224 14.238 25.6684C14.238 20.5143 18.4311 16.3211 23.5852 16.3211C28.7393 16.3211 32.9325 20.5144 32.9325 25.6684C32.9325 30.8224 28.7393 35.0156 23.5852 35.0156Z" fill="url(#paint0_linear_17_1483)"/>
<path d="M23.5852 18.2748C19.5084 18.2748 16.1917 21.5915 16.1917 25.6683C16.1917 29.7451 19.5085 33.0618 23.5852 33.0618C27.6622 33.0618 30.9788 29.7451 30.9788 25.6683C30.9788 21.5915 27.6621 18.2748 23.5852 18.2748ZM27.4149 24.2665L23.2297 28.4516C23.0389 28.6424 22.789 28.7378 22.539 28.7378C22.289 28.7378 22.039 28.6424 21.8484 28.4516L19.7556 26.359C19.3742 25.9776 19.3742 25.3591 19.7556 24.9776C20.137 24.5962 20.7556 24.5961 21.1371 24.9776L22.539 26.3795L26.0334 22.8851C26.4149 22.5037 27.0334 22.5035 27.4149 22.8851C27.7963 23.2665 27.7963 23.8851 27.4149 24.2665Z" fill="url(#paint1_linear_17_1483)"/>
<path d="M26.9473 9.67914C27.0761 9.70649 27.1876 9.78603 27.2559 9.89886L28.9609 12.7202L29.1416 13.018L29.4834 12.9526L32.7207 12.3315C32.8499 12.3066 32.9843 12.336 33.0908 12.4135C33.1973 12.4908 33.2668 12.6098 33.2832 12.7407L33.6934 16.0112L33.7363 16.3569L34.0752 16.436L37.2852 17.185C37.3815 17.2075 37.4684 17.259 37.5332 17.3315L37.5898 17.4116C37.6556 17.5256 37.6718 17.6614 37.6338 17.7875L36.6777 20.9428L36.5762 21.2758L36.8545 21.4858L39.4814 23.476C39.5864 23.5555 39.6541 23.6752 39.668 23.8061C39.6817 23.9373 39.6407 24.0689 39.5547 24.1684L37.3984 26.6616L37.1699 26.9243L37.3379 27.2299L38.9297 30.1166C38.9932 30.232 39.0054 30.3685 38.9648 30.4936C38.9241 30.6189 38.834 30.7228 38.7148 30.7787H38.7139L35.7305 32.1791L35.415 32.3266L35.4443 32.6733L35.7236 35.9584C35.7347 36.0898 35.6907 36.2199 35.6025 36.3178C35.5144 36.4156 35.3895 36.4724 35.2578 36.475L31.9629 36.5414L31.6143 36.5483L31.5 36.8774L30.4189 39.9907C30.3758 40.115 30.2834 40.2163 30.1631 40.27C30.0426 40.3236 29.9048 40.3251 29.7832 40.2739L26.7461 38.9936L26.4258 38.8588L26.1875 39.1127L23.9336 41.518C23.8434 41.6142 23.7168 41.6684 23.585 41.6684C23.4534 41.6683 23.3274 41.6141 23.2373 41.518L20.9834 39.1127L20.7451 38.8588L20.4248 38.9936L17.3867 40.2739C17.265 40.325 17.1281 40.3235 17.0078 40.27C16.8875 40.2164 16.7942 40.1152 16.751 39.9907L15.6699 36.8774L15.5566 36.5483L15.208 36.5414L11.9121 36.475C11.7803 36.4723 11.6553 36.4155 11.5674 36.3178C11.4792 36.22 11.4352 36.0897 11.4463 35.9584L11.7256 32.6733L11.7559 32.3266L11.4404 32.1791L8.45605 30.7787C8.33681 30.7228 8.24589 30.6191 8.20508 30.4936C8.16455 30.3683 8.17774 30.2319 8.24121 30.1166L9.83203 27.2299L10 26.9252L9.77246 26.6616L7.61621 24.1684L7.56055 24.0883C7.51314 24.0032 7.49257 23.9046 7.50293 23.8061C7.51676 23.6752 7.58358 23.5555 7.68848 23.476L10.3164 21.4858L10.5938 21.2758L10.4932 20.9428L9.53711 17.7875C9.49911 17.6616 9.5144 17.5256 9.58008 17.4116C9.64606 17.2973 9.7564 17.215 9.88477 17.185L13.0947 16.436L13.4336 16.3569L13.4775 16.0112L13.8867 12.7407C13.903 12.61 13.9734 12.492 14.0801 12.4145C14.1866 12.3371 14.3206 12.3067 14.4502 12.3315L17.6875 12.9526L18.0293 13.018L18.209 12.7202L19.9141 9.89886C19.9822 9.78603 20.0939 9.70656 20.2227 9.67914C20.3191 9.65862 20.4193 9.66843 20.5088 9.70648L20.5947 9.75433L23.2998 11.6381L23.585 11.8373L23.8711 11.6381L26.5752 9.75433C26.6833 9.67902 26.8182 9.6517 26.9473 9.67914ZM23.585 15.8207C18.1549 15.8209 13.7383 20.2383 13.7383 25.6684C13.7383 31.0985 18.1548 35.5159 23.585 35.5161C29.0152 35.5161 33.4326 31.0985 33.4326 25.6684C33.4326 20.2382 29.0152 15.8207 23.585 15.8207ZM23.585 18.7748C27.3857 18.7748 30.4785 21.8677 30.4785 25.6684C30.4785 29.469 27.3857 32.562 23.585 32.562C19.7845 32.5618 16.6915 29.4689 16.6914 25.6684C16.6914 21.8678 19.7844 18.775 23.585 18.7748ZM27.7686 22.5317C27.1917 21.9548 26.2563 21.9551 25.6797 22.5317L22.5381 25.6723L21.4902 24.6245C20.9134 24.0476 19.9789 24.0479 19.4023 24.6245C18.8258 25.2012 18.8257 26.1357 19.4023 26.7123L21.4951 28.8051C21.7833 29.0933 22.1619 29.2377 22.5391 29.2377C22.9163 29.2377 23.2948 29.0932 23.583 28.8051L27.7686 24.6205C28.3452 24.0439 28.3451 23.1084 27.7686 22.5317Z" stroke="url(#paint2_linear_17_1483)"/>
</g>
<g filter="url(#filter1_f_17_1483)">
<path d="M24.5627 19.6972L14.9975 14.5185L7.86556 22.7311L13.0442 13.1659L4.8316 6.03396L14.3968 11.2126L21.5288 3L16.3501 12.5652L24.5627 19.6972Z" fill="url(#paint3_radial_17_1483)"/>
</g>
<defs>
<filter id="filter0_di_17_1483" x="7" y="9.1684" width="34.1705" height="35" filterUnits="userSpaceOnUse" color-interpolation-filters="sRGB">
<feFlood flood-opacity="0" result="BackgroundImageFix"/>
<feColorMatrix in="SourceAlpha" type="matrix" values="0 0 0 0 0 0 0 0 0 0 0 0 0 0 0 0 0 0 127 0" result="hardAlpha"/>
<feOffset dx="1" dy="2"/>
<feComposite in2="hardAlpha" operator="out"/>
<feColorMatrix type="matrix" values="0 0 0 0 0.513726 0 0 0 0 0.113725 0 0 0 0 0.0627451 0 0 0 0.5 0"/>
<feBlend mode="normal" in2="BackgroundImageFix" result="effect1_dropShadow_17_1483"/>
<feBlend mode="normal" in="SourceGraphic" in2="effect1_dropShadow_17_1483" result="shape"/>
<feColorMatrix in="SourceAlpha" type="matrix" values="0 0 0 0 0 0 0 0 0 0 0 0 0 0 0 0 0 0 127 0" result="hardAlpha"/>
<feOffset dy="2"/>
<feGaussianBlur stdDeviation="2"/>
<feComposite in2="hardAlpha" operator="arithmetic" k2="-1" k3="1"/>
<feColorMatrix type="matrix" values="0 0 0 0 1 0 0 0 0 0.915839 0 0 0 0 0.438927 0 0 0 1 0"/>
<feBlend mode="normal" in2="shape" result="effect2_innerShadow_17_1483"/>
</filter>
<filter id="filter1_f_17_1483" x="1.8316" y="0" width="25.7311" height="25.7311" filterUnits="userSpaceOnUse" color-interpolation-filters="sRGB">
<feFlood flood-opacity="0" result="BackgroundImageFix"/>
<feBlend mode="normal" in="SourceGraphic" in2="BackgroundImageFix" result="shape"/>
<feGaussianBlur stdDeviation="1.5" result="effect1_foregroundBlur_17_1483"/>
</filter>
<linearGradient id="paint0_linear_17_1483" x1="23.5853" y1="9.1684" x2="23.5853" y2="42.1684" gradientUnits="userSpaceOnUse">
<stop stop-color="#F3DFA2"/>
<stop offset="1" stop-color="#C57F34"/>
</linearGradient>
<linearGradient id="paint1_linear_17_1483" x1="23.5853" y1="9.1684" x2="23.5853" y2="42.1684" gradientUnits="userSpaceOnUse">
<stop stop-color="#F3DFA2"/>
<stop offset="1" stop-color="#C57F34"/>
</linearGradient>
<linearGradient id="paint2_linear_17_1483" x1="23.5853" y1="9.1684" x2="23.5853" y2="42.1684" gradientUnits="userSpaceOnUse">
<stop offset="0.0636107" stop-color="#FFEDB3"/>
<stop offset="0.298077" stop-color="#FED466"/>
<stop offset="0.47" stop-color="#FEC639"/>
<stop offset="0.55" stop-color="#F9A505"/>
<stop offset="0.899038" stop-color="#BE6700"/>
</linearGradient>
<radialGradient id="paint3_radial_17_1483" cx="0" cy="0" r="1" gradientUnits="userSpaceOnUse" gradientTransform="translate(14.6972 12.8656) rotate(-145.299) scale(12)">
<stop stop-color="white"/>
<stop offset="0.557292" stop-color="#FFEA70"/>
<stop offset="0.973958" stop-color="#FD7906"/>
</radialGradient>
</defs>
</svg>
