<svg width="96" height="88" viewBox="0 0 96 88" fill="none" xmlns="http://www.w3.org/2000/svg">
<g filter="url(#filter0_f_32_660)">
<path d="M51.1254 39.3943L31.9949 29.037L17.731 45.4622L28.0884 26.3318L11.6631 12.0679L30.7936 22.4252L45.0575 6L34.7001 25.1304L51.1254 39.3943Z" fill="url(#paint0_radial_32_660)"/>
</g>
<g filter="url(#filter1_di_32_660)">
<path d="M19.4473 58.9315C19.0329 60.635 18.8174 62.3918 18.8174 64.1473C18.8175 71.8655 22.7939 78.6319 28.7207 82.3368H22.9814C16.1499 82.3368 10.5918 76.5403 10.5918 69.4159C10.5918 67.4206 11.0447 65.4223 11.9004 63.6376L14.1562 58.9315H19.4473Z" fill="url(#paint1_linear_32_660)"/>
<path d="M84.6064 63.6376C85.4622 65.4223 85.915 67.4206 85.915 69.4159C85.915 76.5403 80.3569 82.3367 73.5254 82.3368H65.9141C71.8409 78.6319 75.8173 71.8655 75.8174 64.1473C75.8174 62.3917 75.6019 60.635 75.1875 58.9315H82.3506L84.6064 63.6376Z" fill="url(#paint2_linear_32_660)"/>
<path d="M20.9609 54.6708C20.752 55.1068 20.5602 55.5515 20.3809 56.0018H14.5869V55.9901L14.5762 56.0018L10.9922 59.7401L9.00586 57.6678L13.2803 53.2098H9V50.2802L23.0664 50.2762L20.9609 54.6708Z" fill="url(#paint3_linear_32_660)"/>
<path d="M87.5068 50.2802V53.2098H83.2266L87.501 57.6678L85.5146 59.7401L81.9307 56.0018L81.9189 55.9901V56.0018H74.2539C74.0745 55.5514 73.8819 55.1069 73.6729 54.6708L71.5664 50.2762L87.5068 50.2802Z" fill="url(#paint4_linear_32_660)"/>
<path d="M20.3438 37.8163C22.0038 37.8163 23.5108 38.495 24.627 39.5995C21.1043 40.4857 18.3795 43.5301 17.8174 47.3104H14.8232C14.3734 46.4127 14.1172 45.3925 14.1172 44.3094C14.1172 40.7234 16.9052 37.8163 20.3438 37.8163Z" fill="url(#paint5_linear_32_660)"/>
<path d="M24.6602 46.953L24.4893 47.3104H20.6777C21.2052 44.9003 23.0171 43.0009 25.3232 42.4384L24.6602 46.953Z" fill="url(#paint6_linear_32_660)"/>
<path d="M69.7607 42.2675C72.7211 42.2675 75.1972 44.4227 75.8291 47.3104H70.1934C70.2369 46.9358 70.2597 46.5545 70.2598 46.1678C70.2598 44.7807 69.9704 43.4623 69.4521 42.2753C69.5543 42.2701 69.6574 42.2675 69.7607 42.2675Z" fill="url(#paint7_linear_32_660)"/>
<path d="M76.1631 37.8163C79.6015 37.8164 82.3887 40.7235 82.3887 44.3094C82.3886 45.3925 82.1333 46.4128 81.6836 47.3104H78.6895C78.1273 43.53 75.4017 40.4856 71.8789 39.5995C72.9951 38.4948 74.5029 37.8163 76.1631 37.8163Z" fill="url(#paint8_linear_32_660)"/>
<path d="M69.2549 32.3837C71.1118 32.6124 72.7182 33.6922 73.7051 35.2401C71.961 35.755 70.4314 36.8053 69.2861 38.2069V32.7518L69.2549 32.3837Z" fill="url(#paint9_linear_32_660)"/>
<path d="M25.3662 36.4823C24.5876 35.9371 23.7245 35.5127 22.8008 35.2401C23.4335 34.2476 24.3214 33.4475 25.3662 32.9403V36.4823Z" fill="url(#paint10_linear_32_660)"/>
<path d="M39.0214 18.6576C41.7993 19.0975 44.2827 20.4837 46.1606 22.4893C46.5027 22.4052 46.8501 22.3356 47.2021 22.2812C48.8439 19.4557 51.4736 17.3213 54.5877 16.4021C53.0263 13.9523 50.3566 12.3368 47.3245 12.3368C43.4367 12.3368 40.1448 14.9919 39.0214 18.6576Z" fill="url(#paint11_linear_32_660)"/>
<path d="M66.7444 29.0981C66.7444 24.0777 62.842 20.0078 58.028 20.0078C55.7036 20.0078 53.5934 20.9584 52.0307 22.505C56.9628 23.7456 60.7777 28.0076 61.5646 33.3004H65.7565C66.3864 32.0434 66.7444 30.6147 66.7444 29.0981Z" fill="url(#paint12_linear_32_660)"/>
<path d="M49.0649 26.2395C48.9202 26.2395 48.7763 26.2436 48.6332 26.2508C49.3588 27.9126 49.7635 29.7576 49.7635 31.6996C49.7635 32.2414 49.7313 32.7756 49.6702 33.3004H57.5607C56.6762 29.2574 53.2097 26.2395 49.0649 26.2395Z" fill="url(#paint13_linear_32_660)"/>
<path d="M45.6931 33.3006C45.7818 32.7806 45.8307 32.2462 45.8307 31.6997C45.8307 26.6793 41.9282 22.6094 37.1142 22.6094C32.3002 22.6094 28.3978 26.6793 28.3978 31.6997C28.3978 32.2463 28.4467 32.7806 28.5353 33.3006H45.6931Z" fill="url(#paint14_linear_32_660)"/>
<path d="M27.9898 49.57L24.831 56.1584C23.6332 58.6571 23 61.4545 23 64.2479C23 74.2221 30.781 82.3368 40.3449 82.3368H54.3354C63.8995 82.3368 71.6805 74.2221 71.6805 64.2479C71.6805 61.4544 71.0473 58.657 69.8492 56.1583L66.6905 49.57H27.9898Z" fill="url(#paint15_linear_32_660)"/>
<path d="M28.5933 37.4475V45.4684H66.087V45.4518L66.1027 45.4684V37.4475H28.5933Z" fill="url(#paint16_linear_32_660)"/>
<path d="M18.4541 59.7313C18.1674 61.1831 18.0176 62.6648 18.0176 64.1473C18.0177 71.2087 21.2323 77.5086 26.2256 81.537H22.9814C16.6231 81.537 11.3916 76.1305 11.3916 69.4159C11.3916 67.5394 11.8185 65.6592 12.6221 63.9833L14.6602 59.7313H18.4541ZM66.1865 50.37L69.1279 56.5038C70.2738 58.8936 70.8809 61.5731 70.8809 64.2479C70.8809 73.8123 63.4259 81.537 54.335 81.537H40.3447C31.254 81.5369 23.7998 73.8122 23.7998 64.2479C23.7998 61.5733 24.4072 58.8945 25.5527 56.5048L28.4932 50.37H66.1865ZM81.8467 59.7313L83.8848 63.9833C84.6883 65.6592 85.1152 67.5394 85.1152 69.4159C85.1152 76.1304 79.8837 81.5369 73.5254 81.537H68.4092C73.4025 77.5086 76.6171 71.2087 76.6172 64.1473C76.6172 62.6648 76.4674 61.1831 76.1807 59.7313H81.8467ZM20.2393 54.3251C20.1005 54.6147 19.9713 54.908 19.8467 55.202H15.3867V53.9335L13.9971 55.4491L13.9863 55.4608L10.9922 58.5839L10.1133 57.6678L13.8574 53.7635L15.1553 52.41H9.7998V51.079L21.7949 51.076L20.2393 54.3251ZM86.707 51.079V52.41H81.3516L82.6494 53.7635L86.3926 57.6678L85.5137 58.5839L82.5078 55.4481L82.4844 55.4247L81.1191 54.0585V55.202H74.7871C74.6621 54.9078 74.5332 54.6144 74.3945 54.3251L72.8369 51.076L86.707 51.079ZM76.1631 38.6161C79.1283 38.6162 81.5889 41.1333 81.5889 44.3094L81.5781 44.6649C81.5397 45.3171 81.3948 45.9376 81.165 46.5106H79.3555C78.6516 43.2664 76.4567 40.5907 73.543 39.3251C74.2479 38.9157 75.0464 38.6662 75.8955 38.6229L76.1631 38.6161ZM70.6152 43.1385C72.4648 43.4467 74.0175 44.7387 74.7441 46.5106H71.0537C71.0574 46.3968 71.0596 46.2826 71.0596 46.1678C71.0596 45.1143 70.902 44.0972 70.6152 43.1385ZM23.916 46.5106H21.7656C22.2763 45.2672 23.1929 44.2593 24.334 43.663L23.916 46.5106ZM20.3438 38.6161C21.2922 38.6161 22.1846 38.873 22.9629 39.3251C20.0494 40.5908 17.8552 43.2666 17.1514 46.5106H15.3418C15.0702 45.834 14.917 45.0915 14.917 44.3094L14.9248 44.0135C15.0673 41.0763 17.3186 38.7696 20.0674 38.6239L20.3438 38.6161ZM65.3027 38.2479V43.4647L65.2871 43.4491V44.6688H29.3936V38.2479H65.3027ZM70.0859 33.3807C70.9744 33.6618 71.7691 34.1766 72.4043 34.8612C71.5652 35.2234 70.7874 35.7047 70.0859 36.2802V33.3807ZM24.5664 35.08C24.4134 35.0038 24.2589 34.9302 24.1016 34.8622C24.2481 34.7042 24.4036 34.556 24.5664 34.4169V35.08ZM58.0283 20.8075C62.369 20.8077 65.9443 24.488 65.9443 29.0985C65.9443 30.3131 65.6934 31.4637 65.2461 32.5009H62.2354C61.2905 27.7334 58.0063 23.8306 53.667 22.1825C54.9201 21.313 56.4186 20.8075 58.0283 20.8075ZM49.8076 27.076C52.8895 27.3773 55.4773 29.5347 56.5049 32.5009H50.54C50.5547 32.2359 50.5635 31.969 50.5635 31.7001C50.5635 30.0816 50.2967 28.525 49.8076 27.076ZM37.1143 23.4091C41.4551 23.4091 45.0303 27.0895 45.0303 31.7001C45.0303 31.9698 45.0161 32.2368 44.9912 32.5009H29.2373C29.2124 32.2368 29.1983 31.9699 29.1982 31.7001C29.1982 27.0895 32.7734 23.4091 37.1143 23.4091ZM47.3242 13.1366C49.704 13.1366 51.847 14.2388 53.3037 15.9969C50.5668 17.0683 48.2609 19.0413 46.708 21.5555C46.6123 21.5732 46.5169 21.5914 46.4219 21.6112C44.6927 19.884 42.5189 18.6285 40.0928 18.0555C41.332 15.1433 44.1159 13.1367 47.3242 13.1366Z" stroke="url(#paint17_linear_32_660)" stroke-width="1.6"/>
</g>
<defs>
<filter id="filter0_f_32_660" x="5.66309" y="0" width="51.4624" height="51.4623" filterUnits="userSpaceOnUse" color-interpolation-filters="sRGB">
<feFlood flood-opacity="0" result="BackgroundImageFix"/>
<feBlend mode="normal" in="SourceGraphic" in2="BackgroundImageFix" result="shape"/>
<feGaussianBlur stdDeviation="3" result="effect1_foregroundBlur_32_660"/>
</filter>
<filter id="filter1_di_32_660" x="9" y="12.3368" width="79.3068" height="71.6" filterUnits="userSpaceOnUse" color-interpolation-filters="sRGB">
<feFlood flood-opacity="0" result="BackgroundImageFix"/>
<feColorMatrix in="SourceAlpha" type="matrix" values="0 0 0 0 0 0 0 0 0 0 0 0 0 0 0 0 0 0 127 0" result="hardAlpha"/>
<feOffset dx="0.8" dy="1.6"/>
<feComposite in2="hardAlpha" operator="out"/>
<feColorMatrix type="matrix" values="0 0 0 0 0.513726 0 0 0 0 0.113725 0 0 0 0 0.0627451 0 0 0 0.5 0"/>
<feBlend mode="normal" in2="BackgroundImageFix" result="effect1_dropShadow_32_660"/>
<feBlend mode="normal" in="SourceGraphic" in2="effect1_dropShadow_32_660" result="shape"/>
<feColorMatrix in="SourceAlpha" type="matrix" values="0 0 0 0 0 0 0 0 0 0 0 0 0 0 0 0 0 0 127 0" result="hardAlpha"/>
<feOffset dy="1.6"/>
<feGaussianBlur stdDeviation="1.6"/>
<feComposite in2="hardAlpha" operator="arithmetic" k2="-1" k3="1"/>
<feColorMatrix type="matrix" values="0 0 0 0 1 0 0 0 0 0.915839 0 0 0 0 0.438927 0 0 0 1 0"/>
<feBlend mode="normal" in2="shape" result="effect2_innerShadow_32_660"/>
</filter>
<radialGradient id="paint0_radial_32_660" cx="0" cy="0" r="1" gradientUnits="userSpaceOnUse" gradientTransform="translate(31.3943 25.7311) rotate(-145.299) scale(24)">
<stop stop-color="white"/>
<stop offset="0.557292" stop-color="#FFEA70"/>
<stop offset="0.973958" stop-color="#FD7906"/>
</radialGradient>
<linearGradient id="paint1_linear_32_660" x1="48.2534" y1="12.3368" x2="48.2534" y2="82.3368" gradientUnits="userSpaceOnUse">
<stop stop-color="#F3DFA2"/>
<stop offset="1" stop-color="#C57F34"/>
</linearGradient>
<linearGradient id="paint2_linear_32_660" x1="48.2534" y1="12.3368" x2="48.2534" y2="82.3368" gradientUnits="userSpaceOnUse">
<stop stop-color="#F3DFA2"/>
<stop offset="1" stop-color="#C57F34"/>
</linearGradient>
<linearGradient id="paint3_linear_32_660" x1="48.2534" y1="12.3368" x2="48.2534" y2="82.3368" gradientUnits="userSpaceOnUse">
<stop stop-color="#F3DFA2"/>
<stop offset="1" stop-color="#C57F34"/>
</linearGradient>
<linearGradient id="paint4_linear_32_660" x1="48.2534" y1="12.3368" x2="48.2534" y2="82.3368" gradientUnits="userSpaceOnUse">
<stop stop-color="#F3DFA2"/>
<stop offset="1" stop-color="#C57F34"/>
</linearGradient>
<linearGradient id="paint5_linear_32_660" x1="48.2534" y1="12.3368" x2="48.2534" y2="82.3368" gradientUnits="userSpaceOnUse">
<stop stop-color="#F3DFA2"/>
<stop offset="1" stop-color="#C57F34"/>
</linearGradient>
<linearGradient id="paint6_linear_32_660" x1="48.2534" y1="12.3368" x2="48.2534" y2="82.3368" gradientUnits="userSpaceOnUse">
<stop stop-color="#F3DFA2"/>
<stop offset="1" stop-color="#C57F34"/>
</linearGradient>
<linearGradient id="paint7_linear_32_660" x1="48.2534" y1="12.3368" x2="48.2534" y2="82.3368" gradientUnits="userSpaceOnUse">
<stop stop-color="#F3DFA2"/>
<stop offset="1" stop-color="#C57F34"/>
</linearGradient>
<linearGradient id="paint8_linear_32_660" x1="48.2534" y1="12.3368" x2="48.2534" y2="82.3368" gradientUnits="userSpaceOnUse">
<stop stop-color="#F3DFA2"/>
<stop offset="1" stop-color="#C57F34"/>
</linearGradient>
<linearGradient id="paint9_linear_32_660" x1="48.2534" y1="12.3368" x2="48.2534" y2="82.3368" gradientUnits="userSpaceOnUse">
<stop stop-color="#F3DFA2"/>
<stop offset="1" stop-color="#C57F34"/>
</linearGradient>
<linearGradient id="paint10_linear_32_660" x1="48.2534" y1="12.3368" x2="48.2534" y2="82.3368" gradientUnits="userSpaceOnUse">
<stop stop-color="#F3DFA2"/>
<stop offset="1" stop-color="#C57F34"/>
</linearGradient>
<linearGradient id="paint11_linear_32_660" x1="48.2534" y1="12.3368" x2="48.2534" y2="82.3368" gradientUnits="userSpaceOnUse">
<stop stop-color="#F3DFA2"/>
<stop offset="1" stop-color="#C57F34"/>
</linearGradient>
<linearGradient id="paint12_linear_32_660" x1="48.2534" y1="12.3368" x2="48.2534" y2="82.3368" gradientUnits="userSpaceOnUse">
<stop stop-color="#F3DFA2"/>
<stop offset="1" stop-color="#C57F34"/>
</linearGradient>
<linearGradient id="paint13_linear_32_660" x1="48.2534" y1="12.3368" x2="48.2534" y2="82.3368" gradientUnits="userSpaceOnUse">
<stop stop-color="#F3DFA2"/>
<stop offset="1" stop-color="#C57F34"/>
</linearGradient>
<linearGradient id="paint14_linear_32_660" x1="48.2534" y1="12.3368" x2="48.2534" y2="82.3368" gradientUnits="userSpaceOnUse">
<stop stop-color="#F3DFA2"/>
<stop offset="1" stop-color="#C57F34"/>
</linearGradient>
<linearGradient id="paint15_linear_32_660" x1="48.2534" y1="12.3368" x2="48.2534" y2="82.3368" gradientUnits="userSpaceOnUse">
<stop stop-color="#F3DFA2"/>
<stop offset="1" stop-color="#C57F34"/>
</linearGradient>
<linearGradient id="paint16_linear_32_660" x1="48.2534" y1="12.3368" x2="48.2534" y2="82.3368" gradientUnits="userSpaceOnUse">
<stop stop-color="#F3DFA2"/>
<stop offset="1" stop-color="#C57F34"/>
</linearGradient>
<linearGradient id="paint17_linear_32_660" x1="48.2534" y1="12.3368" x2="48.2534" y2="82.3368" gradientUnits="userSpaceOnUse">
<stop offset="0.0636107" stop-color="#FFEDB3"/>
<stop offset="0.298077" stop-color="#FED466"/>
<stop offset="0.47" stop-color="#FEC639"/>
<stop offset="0.55" stop-color="#F9A505"/>
<stop offset="0.899038" stop-color="#BE6700"/>
</linearGradient>
</defs>
</svg>
