<svg width="52" height="30" viewBox="0 0 52 30" fill="none" xmlns="http://www.w3.org/2000/svg">
<path d="M51.7206 11.1348V18.6343H49.1893V13.3735H46.752V18.6343H44.2206V11.1343H51.7206V11.1348Z" fill="white"/>
<path fill-rule="evenodd" clip-rule="evenodd" d="M39.3985 18.6343C41.7354 18.6343 43.4707 17.2967 43.4707 15.2689C43.4707 13.3062 42.1904 12.0319 40.0506 12.0319C39.0631 12.0319 38.2483 12.3564 37.6345 12.9164C37.7811 11.759 38.8294 10.9142 39.9836 10.9142C40.25 10.9142 42.2554 10.9102 42.2554 10.9102L43.3895 8.88428C43.3895 8.88428 40.8717 8.93778 39.7013 8.93778C37.027 8.98128 35.2207 11.2505 35.2207 14.0067C35.2207 17.2176 36.9824 18.6343 39.3985 18.6343ZM39.4127 13.8264C40.2804 13.8264 40.8819 14.3586 40.8819 15.2687C40.8819 16.0877 40.3474 16.7626 39.4127 16.7644C38.5187 16.7644 37.9171 16.1391 37.9171 15.2826C37.9171 14.3723 38.5187 13.8264 39.4127 13.8264Z" fill="white"/>
<path d="M33.4104 16.2679C33.4104 16.2679 32.8126 16.6081 31.9198 16.6726C30.8933 16.7026 29.9788 16.0625 29.9788 14.9252C29.9788 13.8157 30.7858 13.1799 31.8939 13.1799C32.5734 13.1799 33.4723 13.6449 33.4723 13.6449C33.4723 13.6449 34.13 12.4532 34.4707 11.8572C33.8468 11.3903 33.0158 11.1343 32.0493 11.1343C29.61 11.1343 27.7207 12.7046 27.7207 14.9111C27.7207 17.1457 29.4965 18.6795 32.0493 18.6332C32.7628 18.607 33.7472 18.3596 34.3472 17.979L33.4104 16.2679Z" fill="white"/>
<path d="M6.10352e-05 6.52948L3.6198 13.0231V16.9841L0.00429552 23.465L6.10352e-05 6.52948Z" fill="#5B57A2"/>
<path d="M13.8995 10.6613L17.2914 8.5748L24.2329 8.5683L13.8995 14.9217V10.6613Z" fill="#D90751"/>
<path d="M13.8794 6.49167L13.8986 15.0891L10.2704 12.8516V0L13.8794 6.49167Z" fill="#FAB718"/>
<path d="M24.232 8.56764L17.2902 8.57414L13.8794 6.49167L10.2704 0L24.232 8.56764Z" fill="#ED6F26"/>
<path d="M13.8986 23.5009V19.3297L10.2704 17.1348L10.2724 29.9991L13.8986 23.5009Z" fill="#63B22F"/>
<path d="M17.2817 21.4335L3.61955 13.0231L6.10352e-05 6.52948L24.2171 21.425L17.2817 21.4335Z" fill="#1487C9"/>
<path d="M10.274 29.9999L13.8998 23.5018L17.2831 21.4343L24.2185 21.4258L10.274 29.9999Z" fill="#017F36"/>
<path d="M0.0055542 23.4649L10.3011 17.135L6.83977 15.0035L3.62106 16.984L0.0055542 23.4649Z" fill="#984995"/>
</svg>
