<svg width="97" height="96" viewBox="0 0 97 96" fill="none" xmlns="http://www.w3.org/2000/svg">
<g filter="url(#filter0_di_32_693)">
<path d="M30.7369 82.6425C30.7198 85.3952 31.5832 88.0812 33.2009 90.3083C22.7192 89.6434 13.137 85.8105 13.137 78.7314V75.2897C18.3218 78.9155 24.419 81.0156 30.7369 81.3519V82.6425ZM30.8934 66.7243C30.8786 66.7398 30.8674 66.7583 30.8607 66.7786C30.8539 66.7989 30.8517 66.8204 30.8543 66.8417C30.7765 67.2279 30.7372 67.621 30.7369 68.015V75.4852C21.2721 74.3901 13.137 70.6354 13.137 64.1039V60.6621C18.3428 64.333 24.4908 66.4367 30.8543 66.7243H30.8934ZM46.1467 52.4097C40.9254 53.7478 36.2921 56.7725 32.9663 61.0141C22.5627 60.3492 13.137 56.5163 13.137 49.4763V46.8168C20.0618 51.4284 28.2973 53.6657 36.6036 53.1919C39.8011 53.2036 42.9938 52.9419 46.1467 52.4097ZM60.0703 46.8168V49.4763C60.0652 49.8036 60.0391 50.1302 59.992 50.4541C57.056 50.4534 54.1252 50.702 51.2312 51.1972C54.424 50.2987 57.4215 48.8132 60.0703 46.8168ZM36.6036 23.9368C24.8703 23.9368 13.137 27.8479 13.137 35.631C13.137 43.4923 24.8703 47.3252 36.6036 47.3252C48.3369 47.3252 60.0703 43.4923 60.0703 35.631C60.0703 27.8479 48.3369 23.9368 36.6036 23.9368ZM60.0703 85.5759C51.7195 85.9396 43.4788 83.5635 36.6036 78.8097V82.6425C36.6036 90.4257 48.3369 94.3368 60.0703 94.3368C71.8036 94.3368 83.5369 90.4257 83.5369 82.6425V78.8097C76.6617 83.5635 68.421 85.9396 60.0703 85.5759ZM60.0703 56.3208C47.1245 56.3208 36.6036 61.5617 36.6036 68.015C36.6036 74.4683 47.1245 79.7092 60.0703 79.7092C73.016 79.7092 83.5369 74.4683 83.5369 68.015C83.5369 61.5617 73.016 56.3208 60.0703 56.3208Z" fill="url(#paint0_linear_32_693)"/>
<path d="M82.7366 82.6428C82.7364 86.0555 80.1751 88.7724 75.8792 90.677C71.6116 92.5689 65.864 93.5363 60.0706 93.5364C54.2769 93.5364 48.5286 92.569 44.261 90.677C39.9651 88.7725 37.4037 86.0555 37.4036 82.6428V80.2981C44.1494 84.5889 52.0586 86.7178 60.0696 86.3762C68.0809 86.7181 75.9905 84.589 82.7366 80.2981V82.6428ZM13.9368 76.7825C18.7478 79.8435 24.2429 81.6725 29.9368 82.1008V82.6379C29.9221 85.006 30.5219 87.3273 31.6633 89.3811C27.0827 88.9428 22.8131 87.8812 19.6077 86.2151C16.0272 84.354 13.9369 81.8426 13.9368 78.7317V76.7825ZM60.0706 57.1204C66.446 57.1204 72.1851 58.4133 76.301 60.4641C80.4661 62.5395 82.7365 65.2564 82.7366 68.0149C82.7366 70.7734 80.4661 73.4903 76.301 75.5657C72.1851 77.6165 66.4461 78.9094 60.0706 78.9094C53.6948 78.9094 47.9551 77.6166 43.8391 75.5657C39.6741 73.4903 37.4036 70.7733 37.4036 68.0149C37.4036 65.2565 39.6741 62.5395 43.8391 60.4641C47.9551 58.4132 53.6948 57.1204 60.0706 57.1204ZM13.9368 62.1614C18.7469 65.2427 24.2559 67.0702 29.9612 67.4719C29.9465 67.6523 29.9369 67.8337 29.9368 68.0149V74.5774C25.6157 73.9937 21.6817 72.8427 18.7932 71.1438C15.7107 69.3308 13.9368 66.9782 13.9368 64.1038V62.1614ZM13.9368 48.2756C20.7337 52.4419 28.6506 54.4426 36.6331 53.9905C37.8205 53.9941 39.0073 53.9604 40.1917 53.8899C37.29 55.4607 34.7078 57.5945 32.6047 60.1848C27.6239 59.8247 22.9518 58.7295 19.5227 56.928C15.994 55.074 13.937 52.5727 13.9368 49.4768V48.2756ZM59.2698 49.4768C59.2687 49.5384 59.2637 49.5998 59.261 49.6614C58.4963 49.6718 57.7321 49.6987 56.969 49.7424C57.7572 49.3208 58.525 48.8609 59.2698 48.3635V49.4768ZM36.6038 24.7366C42.3973 24.7366 48.1448 25.705 52.4124 27.5969C56.7084 29.5015 59.2698 32.2183 59.2698 35.6311C59.2697 39.0844 56.7068 41.8011 52.4143 43.6946C48.1474 45.5768 42.3994 46.5256 36.6038 46.5256C30.8081 46.5256 25.0602 45.5767 20.7932 43.6946C16.5007 41.8011 13.9368 39.0844 13.9368 35.6311C13.9368 32.2184 16.4983 29.5015 20.7942 27.5969C25.0618 25.7049 30.8101 24.7366 36.6038 24.7366Z" stroke="url(#paint1_linear_32_693)" stroke-width="1.6"/>
</g>
<g filter="url(#filter1_f_32_693)">
<path d="M45.4623 39.3943L26.3319 29.037L12.068 45.4622L22.4253 26.3318L6.00005 12.0679L25.1305 22.4252L39.3944 6L29.037 25.1304L45.4623 39.3943Z" fill="url(#paint2_radial_32_693)"/>
</g>
<defs>
<filter id="filter0_di_32_693" x="13.137" y="23.9368" width="71.1999" height="72" filterUnits="userSpaceOnUse" color-interpolation-filters="sRGB">
<feFlood flood-opacity="0" result="BackgroundImageFix"/>
<feColorMatrix in="SourceAlpha" type="matrix" values="0 0 0 0 0 0 0 0 0 0 0 0 0 0 0 0 0 0 127 0" result="hardAlpha"/>
<feOffset dx="0.8" dy="1.6"/>
<feComposite in2="hardAlpha" operator="out"/>
<feColorMatrix type="matrix" values="0 0 0 0 0.513726 0 0 0 0 0.113725 0 0 0 0 0.0627451 0 0 0 0.5 0"/>
<feBlend mode="normal" in2="BackgroundImageFix" result="effect1_dropShadow_32_693"/>
<feBlend mode="normal" in="SourceGraphic" in2="effect1_dropShadow_32_693" result="shape"/>
<feColorMatrix in="SourceAlpha" type="matrix" values="0 0 0 0 0 0 0 0 0 0 0 0 0 0 0 0 0 0 127 0" result="hardAlpha"/>
<feOffset dy="1.6"/>
<feGaussianBlur stdDeviation="1.6"/>
<feComposite in2="hardAlpha" operator="arithmetic" k2="-1" k3="1"/>
<feColorMatrix type="matrix" values="0 0 0 0 1 0 0 0 0 0.915839 0 0 0 0 0.438927 0 0 0 1 0"/>
<feBlend mode="normal" in2="shape" result="effect2_innerShadow_32_693"/>
</filter>
<filter id="filter1_f_32_693" x="0" y="0" width="51.4624" height="51.4623" filterUnits="userSpaceOnUse" color-interpolation-filters="sRGB">
<feFlood flood-opacity="0" result="BackgroundImageFix"/>
<feBlend mode="normal" in="SourceGraphic" in2="BackgroundImageFix" result="shape"/>
<feGaussianBlur stdDeviation="3" result="effect1_foregroundBlur_32_693"/>
</filter>
<linearGradient id="paint0_linear_32_693" x1="48.3369" y1="23.9368" x2="48.3369" y2="94.3368" gradientUnits="userSpaceOnUse">
<stop stop-color="#F3DFA2"/>
<stop offset="1" stop-color="#C57F34"/>
</linearGradient>
<linearGradient id="paint1_linear_32_693" x1="48.3369" y1="23.9368" x2="48.3369" y2="94.3368" gradientUnits="userSpaceOnUse">
<stop offset="0.0636107" stop-color="#FFEDB3"/>
<stop offset="0.298077" stop-color="#FED466"/>
<stop offset="0.47" stop-color="#FEC639"/>
<stop offset="0.55" stop-color="#F9A505"/>
<stop offset="0.899038" stop-color="#BE6700"/>
</linearGradient>
<radialGradient id="paint2_radial_32_693" cx="0" cy="0" r="1" gradientUnits="userSpaceOnUse" gradientTransform="translate(25.7312 25.7311) rotate(-145.299) scale(24)">
<stop stop-color="white"/>
<stop offset="0.557292" stop-color="#FFEA70"/>
<stop offset="0.973958" stop-color="#FD7906"/>
</radialGradient>
</defs>
</svg>
