<svg width="120" height="127" viewBox="0 0 120 127" fill="none" xmlns="http://www.w3.org/2000/svg">
<path d="M63.5 24.921C86.934 24.921 106 43.9874 106 67.421C106 90.8547 86.9344 109.921 63.5 109.921C40.0667 109.921 21 90.8547 21 67.421C21 43.9874 40.0663 24.921 63.5 24.921ZM86.7393 50.339C84.1039 47.7036 79.832 47.7047 77.1973 50.339L57.3438 70.1906L49.8037 62.6505C47.1687 60.0151 42.8961 60.0162 40.2617 62.6505C37.6275 65.2857 37.6272 69.558 40.2617 72.1925L52.5742 84.504C53.891 85.8212 55.6198 86.4806 57.3447 86.4806C58.9625 86.4805 60.5826 85.901 61.8643 84.7433L62.1152 84.504L86.7393 59.881C89.374 57.2461 89.3736 52.9738 86.7393 50.339Z" fill="url(#paint0_linear_24_564)" stroke="url(#paint1_linear_24_564)" stroke-width="2"/>
<g filter="url(#filter0_f_24_564)">
<path d="M63.4067 49.2429L39.4937 36.2962L21.6638 56.8278L34.6105 32.9147L14.0789 15.0849L37.9919 28.0315L55.8218 7.49997L42.8752 31.413L63.4067 49.2429Z" fill="url(#paint2_radial_24_564)"/>
</g>
<defs>
<filter id="filter0_f_24_564" x="6.57892" y="0" width="64.3278" height="64.3278" filterUnits="userSpaceOnUse" color-interpolation-filters="sRGB">
<feFlood flood-opacity="0" result="BackgroundImageFix"/>
<feBlend mode="normal" in="SourceGraphic" in2="BackgroundImageFix" result="shape"/>
<feGaussianBlur stdDeviation="3.75" result="effect1_foregroundBlur_24_564"/>
</filter>
<linearGradient id="paint0_linear_24_564" x1="63.5" y1="23.921" x2="63.5" y2="110.921" gradientUnits="userSpaceOnUse">
<stop stop-color="#F3DFA2"/>
<stop offset="1" stop-color="#C57F34"/>
</linearGradient>
<linearGradient id="paint1_linear_24_564" x1="63.5" y1="23.921" x2="63.5" y2="110.921" gradientUnits="userSpaceOnUse">
<stop offset="0.0636107" stop-color="#FFEDB3"/>
<stop offset="0.298077" stop-color="#FED466"/>
<stop offset="0.47" stop-color="#FEC639"/>
<stop offset="0.55" stop-color="#F9A505"/>
<stop offset="0.899038" stop-color="#BE6700"/>
</linearGradient>
<radialGradient id="paint2_radial_24_564" cx="0" cy="0" r="1" gradientUnits="userSpaceOnUse" gradientTransform="translate(38.7428 32.1639) rotate(-145.299) scale(30)">
<stop stop-color="white"/>
<stop offset="0.557292" stop-color="#FFEA70"/>
<stop offset="0.973958" stop-color="#FD7906"/>
</radialGradient>
</defs>
</svg>
