<svg width="51" height="53" viewBox="0 0 51 53" fill="none" xmlns="http://www.w3.org/2000/svg">
<g filter="url(#filter0_di_4_98)">
<path d="M19.4696 24.9046C17.7394 23.184 16.6683 20.8013 16.6683 18.1684C16.6683 15.5355 17.7394 13.1528 19.4696 11.4322C18.4735 10.9431 17.353 10.6684 16.1683 10.6684C12.0262 10.6684 8.66833 14.0263 8.66833 18.1684C8.66833 22.3105 12.0262 25.6684 16.1683 25.6684C17.353 25.6684 18.4735 25.3937 19.4696 24.9046Z" fill="url(#paint0_linear_4_98)"/>
<path d="M18.6683 18.1684C18.6683 14.0263 22.0262 10.6684 26.1683 10.6684C30.3105 10.6684 33.6683 14.0263 33.6683 18.1684C33.6683 22.3105 30.3105 25.6684 26.1683 25.6684C22.0262 25.6684 18.6683 22.3105 18.6683 18.1684Z" fill="url(#paint1_linear_4_98)"/>
<path d="M32.8671 11.4322C34.5973 13.1528 35.6683 15.5355 35.6683 18.1684C35.6683 20.8013 34.5973 23.184 32.8671 24.9046C33.8632 25.3937 34.9837 25.6684 36.1683 25.6684C40.3105 25.6684 43.6683 22.3105 43.6683 18.1684C43.6683 14.0263 40.3105 10.6684 36.1683 10.6684C34.9837 10.6684 33.8632 10.9431 32.8671 11.4322Z" fill="url(#paint2_linear_4_98)"/>
<path d="M12.6683 36.1684C12.6683 32.0263 16.0262 28.6684 20.1683 28.6684H32.1683C36.3105 28.6684 39.6683 32.0263 39.6683 36.1684C39.6683 40.3105 36.3105 43.6684 32.1683 43.6684H20.1683C16.0262 43.6684 12.6683 40.3105 12.6683 36.1684Z" fill="url(#paint3_linear_4_98)"/>
<path d="M2.66833 34.1684C2.66833 30.0263 6.0262 26.6684 10.1683 26.6684H20.1683C14.9216 26.6684 10.6683 30.9217 10.6683 36.1684C10.6683 38.2181 11.3175 40.1163 12.4214 41.6684H10.1683C6.0262 41.6684 2.66833 38.3105 2.66833 34.1684Z" fill="url(#paint4_linear_4_98)"/>
<path d="M41.6683 36.1684C41.6683 38.2181 41.0192 40.1163 39.9152 41.6684H42.1683C46.3105 41.6684 49.6683 38.3105 49.6683 34.1684C49.6683 30.0263 46.3105 26.6684 42.1683 26.6684H32.1683C37.415 26.6684 41.6683 30.9217 41.6683 36.1684Z" fill="url(#paint5_linear_4_98)"/>
<path d="M20.1683 29.1684H32.1683C36.0343 29.1684 39.1683 32.3024 39.1683 36.1684C39.1683 40.0344 36.0343 43.1684 32.1683 43.1684H20.1683C16.3023 43.1684 13.1683 40.0344 13.1683 36.1684C13.1683 32.3024 16.3023 29.1684 20.1683 29.1684ZM10.1683 27.1684H15.807C12.4696 28.7887 10.1683 32.2093 10.1683 36.1684C10.1683 37.9895 10.657 39.6971 11.5082 41.1684H10.1683C6.30234 41.1684 3.16833 38.0344 3.16833 34.1684C3.16833 30.3024 6.30234 27.1684 10.1683 27.1684ZM42.1683 27.1684C46.0343 27.1684 49.1683 30.3024 49.1683 34.1684C49.1683 38.0344 46.0343 41.1684 42.1683 41.1684H40.8285C41.6797 39.6971 42.1683 37.9895 42.1683 36.1684C42.1683 32.2093 39.8671 28.7887 36.5297 27.1684H42.1683ZM16.1683 11.1684C17.032 11.1684 17.8576 11.3263 18.6205 11.6118C17.0945 13.3671 16.1683 15.6595 16.1683 18.1684C16.1683 20.6771 17.0948 22.9688 18.6205 24.7241C17.8575 25.0096 17.0321 25.1684 16.1683 25.1684C12.3023 25.1684 9.16833 22.0344 9.16833 18.1684C9.16833 14.3024 12.3023 11.1684 16.1683 11.1684ZM26.1683 11.1684C30.0343 11.1684 33.1683 14.3024 33.1683 18.1684C33.1683 22.0344 30.0343 25.1684 26.1683 25.1684C22.3023 25.1684 19.1683 22.0344 19.1683 18.1684C19.1683 14.3024 22.3023 11.1684 26.1683 11.1684ZM36.1683 11.1684C40.0343 11.1684 43.1683 14.3024 43.1683 18.1684C43.1683 22.0344 40.0343 25.1684 36.1683 25.1684C35.3042 25.1684 34.4784 25.0098 33.7152 24.7241C35.2412 22.9687 36.1683 20.6773 36.1683 18.1684C36.1683 15.6592 35.2415 13.3672 33.7152 11.6118C34.4783 11.3261 35.3044 11.1684 36.1683 11.1684Z" stroke="url(#paint6_linear_4_98)"/>
</g>
<g filter="url(#filter1_f_4_98)">
<path d="M22.7311 19.6972L13.1659 14.5185L6.03398 22.7311L11.2126 13.1659L3.00003 6.03396L12.5652 11.2126L19.6972 3L14.5185 12.5652L22.7311 19.6972Z" fill="url(#paint7_radial_4_98)"/>
</g>
<defs>
<filter id="filter0_di_4_98" x="2.66833" y="10.6684" width="48" height="35" filterUnits="userSpaceOnUse" color-interpolation-filters="sRGB">
<feFlood flood-opacity="0" result="BackgroundImageFix"/>
<feColorMatrix in="SourceAlpha" type="matrix" values="0 0 0 0 0 0 0 0 0 0 0 0 0 0 0 0 0 0 127 0" result="hardAlpha"/>
<feOffset dx="1" dy="2"/>
<feComposite in2="hardAlpha" operator="out"/>
<feColorMatrix type="matrix" values="0 0 0 0 0.513726 0 0 0 0 0.113725 0 0 0 0 0.0627451 0 0 0 0.5 0"/>
<feBlend mode="normal" in2="BackgroundImageFix" result="effect1_dropShadow_4_98"/>
<feBlend mode="normal" in="SourceGraphic" in2="effect1_dropShadow_4_98" result="shape"/>
<feColorMatrix in="SourceAlpha" type="matrix" values="0 0 0 0 0 0 0 0 0 0 0 0 0 0 0 0 0 0 127 0" result="hardAlpha"/>
<feOffset dy="2"/>
<feGaussianBlur stdDeviation="2"/>
<feComposite in2="hardAlpha" operator="arithmetic" k2="-1" k3="1"/>
<feColorMatrix type="matrix" values="0 0 0 0 1 0 0 0 0 0.915839 0 0 0 0 0.438927 0 0 0 1 0"/>
<feBlend mode="normal" in2="shape" result="effect2_innerShadow_4_98"/>
</filter>
<filter id="filter1_f_4_98" x="0" y="0" width="25.7311" height="25.7311" filterUnits="userSpaceOnUse" color-interpolation-filters="sRGB">
<feFlood flood-opacity="0" result="BackgroundImageFix"/>
<feBlend mode="normal" in="SourceGraphic" in2="BackgroundImageFix" result="shape"/>
<feGaussianBlur stdDeviation="1.5" result="effect1_foregroundBlur_4_98"/>
</filter>
<linearGradient id="paint0_linear_4_98" x1="26.1683" y1="10.6684" x2="26.1683" y2="43.6684" gradientUnits="userSpaceOnUse">
<stop stop-color="#F3DFA2"/>
<stop offset="1" stop-color="#C57F34"/>
</linearGradient>
<linearGradient id="paint1_linear_4_98" x1="26.1683" y1="10.6684" x2="26.1683" y2="43.6684" gradientUnits="userSpaceOnUse">
<stop stop-color="#F3DFA2"/>
<stop offset="1" stop-color="#C57F34"/>
</linearGradient>
<linearGradient id="paint2_linear_4_98" x1="26.1683" y1="10.6684" x2="26.1683" y2="43.6684" gradientUnits="userSpaceOnUse">
<stop stop-color="#F3DFA2"/>
<stop offset="1" stop-color="#C57F34"/>
</linearGradient>
<linearGradient id="paint3_linear_4_98" x1="26.1683" y1="10.6684" x2="26.1683" y2="43.6684" gradientUnits="userSpaceOnUse">
<stop stop-color="#F3DFA2"/>
<stop offset="1" stop-color="#C57F34"/>
</linearGradient>
<linearGradient id="paint4_linear_4_98" x1="26.1683" y1="10.6684" x2="26.1683" y2="43.6684" gradientUnits="userSpaceOnUse">
<stop stop-color="#F3DFA2"/>
<stop offset="1" stop-color="#C57F34"/>
</linearGradient>
<linearGradient id="paint5_linear_4_98" x1="26.1683" y1="10.6684" x2="26.1683" y2="43.6684" gradientUnits="userSpaceOnUse">
<stop stop-color="#F3DFA2"/>
<stop offset="1" stop-color="#C57F34"/>
</linearGradient>
<linearGradient id="paint6_linear_4_98" x1="26.1683" y1="10.6684" x2="26.1683" y2="43.6684" gradientUnits="userSpaceOnUse">
<stop offset="0.0636107" stop-color="#FFEDB3"/>
<stop offset="0.298077" stop-color="#FED466"/>
<stop offset="0.47" stop-color="#FEC639"/>
<stop offset="0.55" stop-color="#F9A505"/>
<stop offset="0.899038" stop-color="#BE6700"/>
</linearGradient>
<radialGradient id="paint7_radial_4_98" cx="0" cy="0" r="1" gradientUnits="userSpaceOnUse" gradientTransform="translate(12.8656 12.8656) rotate(-145.299) scale(12)">
<stop stop-color="white"/>
<stop offset="0.557292" stop-color="#FFEA70"/>
<stop offset="0.973958" stop-color="#FD7906"/>
</radialGradient>
</defs>
</svg>
